<svg width="420" height="420" viewBox="0 0 420 420" fill="none" xmlns="http://www.w3.org/2000/svg">
<g clip-path="url(#clip0_1_2)">
<path d="M340.521 206.756H79.4791C79.4791 215.655 80.3909 224.424 82.0891 232.933H337.911C339.609 224.424 340.521 215.655 340.521 206.756Z" fill="black"/>
<path d="M105.583 285.29H314.417C320.42 277.173 325.512 268.403 329.559 259.109H90.3124C94.4884 268.403 99.5796 277.173 105.583 285.29Z" fill="black"/>
<path d="M210 337.644C239.368 337.644 266.515 327.96 288.314 311.467H131.686C153.485 327.827 180.632 337.644 210 337.644Z" fill="black"/>
<path fill-rule="evenodd" clip-rule="evenodd" d="M53.4 206.756C53.4 120.083 123.571 49.7147 210 49.7147C296.429 49.7147 366.6 120.083 366.6 206.756H340.521C340.521 134.517 282.036 75.8673 210 75.8673C137.964 75.8673 79.4791 134.517 79.4791 206.756H53.4Z" fill="black"/>
</g>
<defs>
<clipPath id="clip0_1_2">
<rect width="348" height="342" fill="white" transform="translate(36 25)"/>
</clipPath>
</defs>
</svg>
